<svg width="400" height="400" viewBox="0 0 400 400" fill="none" xmlns="http://www.w3.org/2000/svg">
<path d="M189.743 113.286C174.359 128.56 164.102 143.835 138.461 154.017C83.9964 239.457 87.1794 135.781 87.1794 113.286C87.1794 90.79 110.139 72.5538 138.461 72.5538C166.784 72.5538 189.743 90.79 189.743 113.286Z" fill="#273841"/>
<path d="M205.127 113.341C221.27 129.369 280.521 202.786 258.938 156.081C230.557 283.162 321.14 228.534 319.478 108.319C319.478 84.7141 288.656 70.601 258.938 70.601C229.219 70.601 205.127 89.7363 205.127 113.341Z" fill="#9B6CD7"/>
<path d="M296.741 212.227C279.714 227.326 256.827 254.43 233.019 251.769C77.8493 234.425 247.357 328.55 282.356 319.73C306.093 321.061 326.693 298.258 328.368 268.799C330.043 239.34 320.479 213.558 296.741 212.227Z" fill="#73DAB5"/>
<mask id="path-4-inside-1_726_236" fill="white">
<path d="M308.317 195.659C326.108 221.373 334.03 252.566 330.646 283.581C327.262 314.596 312.797 343.381 289.872 364.717C266.948 386.053 237.083 398.527 205.69 399.878C174.298 401.229 143.457 391.367 118.76 372.08C94.0621 352.794 77.1425 325.36 71.0685 294.751C64.9944 264.143 70.1681 232.387 85.6515 205.241C101.135 178.094 125.903 157.355 155.465 146.782C185.027 136.21 217.427 136.504 246.789 147.612L239.74 165.979C214.801 156.545 187.283 156.295 162.174 165.275C137.066 174.255 116.029 191.87 102.878 214.926C89.7277 237.983 85.3334 264.955 90.4924 290.952C95.6514 316.949 110.022 340.25 130.999 356.631C151.976 373.012 178.17 381.388 204.833 380.24C231.496 379.093 256.862 368.498 276.333 350.377C295.804 332.255 308.09 307.807 310.964 281.464C313.838 255.122 307.109 228.628 291.999 206.788L308.317 195.659Z"/>
</mask>
<path d="M308.317 195.659C326.108 221.373 334.03 252.566 330.646 283.581C327.262 314.596 312.797 343.381 289.872 364.717C266.948 386.053 237.083 398.527 205.69 399.878C174.298 401.229 143.457 391.367 118.76 372.08C94.0621 352.794 77.1425 325.36 71.0685 294.751C64.9944 264.143 70.1681 232.387 85.6515 205.241C101.135 178.094 125.903 157.355 155.465 146.782C185.027 136.21 217.427 136.504 246.789 147.612L239.74 165.979C214.801 156.545 187.283 156.295 162.174 165.275C137.066 174.255 116.029 191.87 102.878 214.926C89.7277 237.983 85.3334 264.955 90.4924 290.952C95.6514 316.949 110.022 340.25 130.999 356.631C151.976 373.012 178.17 381.388 204.833 380.24C231.496 379.093 256.862 368.498 276.333 350.377C295.804 332.255 308.09 307.807 310.964 281.464C313.838 255.122 307.109 228.628 291.999 206.788L308.317 195.659Z" stroke="white" stroke-width="48.523" stroke-linecap="square" mask="url(#path-4-inside-1_726_236)"/>
<path d="M250.69 198.568C250.69 263.842 197.369 316.906 131.41 316.906C65.4516 316.906 12.1307 263.842 12.1307 198.568C12.1307 133.293 65.4516 80.2293 131.41 80.2293C197.369 80.2293 250.69 133.293 250.69 198.568Z" stroke="white" stroke-width="24.2615"/>
<path d="M250.69 198.568C250.69 263.842 197.369 316.906 131.41 316.906C65.4516 316.906 12.1307 263.842 12.1307 198.568C12.1307 133.293 65.4516 80.2293 131.41 80.2293C197.369 80.2293 250.69 133.293 250.69 198.568Z" stroke="white" stroke-width="24.2615"/>
<path d="M283.816 233.473C266.095 250.952 261.675 246.797 237.105 250.801C147.395 265.422 203.402 326.102 289.371 310.346C313.929 311.723 305.516 302.783 307.444 268.885C309.371 234.987 308.374 234.849 283.816 233.473Z" fill="#73DAB5"/>
<path d="M387.869 198.568C387.869 263.842 334.548 316.906 268.59 316.906C202.631 316.906 149.31 263.842 149.31 198.568C149.31 133.293 202.631 80.2293 268.59 80.2293C334.548 80.2293 387.869 133.293 387.869 198.568Z" stroke="white" stroke-width="24.2615"/>
<path d="M94.2925 90.383C169.661 67.9771 213.188 118.483 227.371 141.773C194.01 136.724 162.05 143.773 150.471 148.674C128.432 157.119 108.725 175.253 101.472 183.235C82.2004 148.552 87.3541 104.066 94.2925 90.383Z" fill="#9CAEEE"/>
<path d="M319.279 130.469C319.279 195.744 265.959 248.808 200 248.808C134.041 248.808 80.7206 195.744 80.7206 130.469C80.7206 65.1947 134.041 12.1307 200 12.1307C265.959 12.1307 319.279 65.1947 319.279 130.469Z" stroke="white" stroke-width="24.2615"/>
<path d="M93.1885 303.189C73.1662 234.718 115.484 190.219 139.146 176.529C134.111 208.582 142.903 238.806 147.928 249.911C156.592 271.05 175.053 290.217 183.201 297.158C147.901 316.034 108.456 309.177 93.1885 303.189Z" fill="#F0BCBC"/>
</svg>
